<svg width="90" height="32" viewBox="0 0 90 32" fill="none" xmlns="http://www.w3.org/2000/svg">
<path d="M14.375 28.8592C14.375 29.9977 15.2441 30.8113 16.4077 30.8113C17.0613 30.8113 17.6024 30.5754 17.9568 30.1373L17.3989 29.6198C17.1475 29.9159 16.8315 30.0675 16.4556 30.0675C15.7541 30.0675 15.2537 29.5717 15.2537 28.8592C15.2537 28.1468 15.7517 27.651 16.4556 27.651C16.8315 27.651 17.1475 27.8026 17.3989 28.0938L17.9568 27.5764C17.6024 27.1455 17.0613 26.9072 16.4125 26.9072C15.2441 26.9072 14.375 27.7208 14.375 28.8592Z" fill="#0F0F0F"/>
<path d="M20.48 27.6817H21.1887C21.7202 27.6817 21.9884 27.9248 21.9884 28.3388C21.9884 28.748 21.7202 28.9959 21.1887 28.9959H20.48V27.6817ZM19.6133 26.9717V30.7457H20.48V29.6939H21.2366H21.2797L22.0027 30.7457H22.9365L22.0937 29.5326C22.5822 29.3232 22.8647 28.9068 22.8647 28.3412C22.8647 27.494 22.2374 26.9717 21.2342 26.9717H19.6133Z" fill="#0F0F0F"/>
<path d="M24.625 26.9717V30.7433H27.5316V30.0429H25.4893V29.1692H27.2323V28.4904H25.4893V27.6721H27.4622V26.9717H24.625Z" fill="#0F0F0F"/>
<path d="M30.8977 27.8285L31.4939 29.2727H30.3039L30.8977 27.8285ZM30.4763 26.9717L28.8027 30.7457H29.6934L30.0262 29.937H31.7692L32.102 30.7457H33.0142L31.3359 26.9717H30.4763Z" fill="#0F0F0F"/>
<path d="M33.8652 26.9717V27.6817H35.0648V30.7433H35.9339V27.6817H37.1358V26.9717H33.8652Z" fill="#0F0F0F"/>
<path d="M39.541 26.9717H38.6719V30.7457H39.541V26.9717Z" fill="#0F0F0F"/>
<path d="M44.2253 26.9717L43.0689 29.665L41.9268 26.9717H40.9883L42.6068 30.7433H43.4639L45.0896 26.9717H44.2253Z" fill="#0F0F0F"/>
<path d="M46.4727 26.9717V30.7433H49.3793V30.0429H47.337V29.1692H49.08V28.4904H47.337V27.6721H49.3098V26.9717H46.4727Z" fill="#0F0F0F"/>
<path d="M35.8872 18.7473C35.1738 17.876 34.7691 16.7664 34.7691 15.5582C34.7691 14.3355 35.1762 13.2042 35.9064 12.3281C36.8449 11.2016 38.2983 10.4916 39.9335 10.4916C42.5648 10.4916 45.232 12.2342 45.232 15.5678C45.232 18.0782 43.4124 20.6223 39.9335 20.6223C38.2815 20.6247 36.8234 19.8906 35.8872 18.7473ZM33.2057 9.05708C31.5153 10.7852 30.584 13.0935 30.584 15.5582C30.584 18.0229 31.5153 20.3311 33.2057 22.0593C34.908 23.7971 37.1969 24.755 39.651 24.755C41.5736 24.755 43.4483 24.1196 45.0692 22.9209L45.1698 22.8463L45.2727 24.3964H49.3836V6.71755H45.2727L45.1698 8.28927L45.0692 8.21466C43.4435 6.98472 41.6215 6.36133 39.651 6.36133C37.1969 6.36133 34.9056 7.31928 33.2057 9.05708Z" fill="#0F0F0F"/>
<path d="M25.2487 8.28913L25.1457 6.71742L21.0156 6.72223V24.3987H25.2487V14.8889C25.2487 12.1763 26.8241 10.4915 29.3596 10.4915C29.3596 10.4915 29.4123 10.4891 29.5104 10.4891C29.7762 10.4891 30.3005 10.4891 30.9518 10.4891V6.35638C30.9063 6.35397 30.832 6.35156 30.7363 6.35156C27.0539 6.35156 25.2487 8.28913 25.2487 8.28913Z" fill="#0F0F0F"/>
<path d="M76.6182 19.1854C75.6438 18.2443 75.1051 16.9566 75.1051 15.5582C75.1051 14.1597 75.627 12.872 76.6015 11.9309C77.5616 11.0043 78.8712 10.494 80.2599 10.494C81.6916 10.494 82.9989 11.0043 83.9446 11.9309C84.8928 12.86 85.4123 14.1477 85.4123 15.5582C85.4123 16.9542 84.876 18.2419 83.9015 19.1854C82.9415 20.1121 81.6486 20.6223 80.2599 20.6223C78.8736 20.6247 77.5783 20.1121 76.6182 19.1854ZM70.9199 15.5582C70.9199 18.0277 71.8728 20.3359 73.6039 22.0593C75.3517 23.7995 77.7148 24.7574 80.2599 24.7574C85.4985 24.7574 89.5999 20.7162 89.5999 15.5606C89.5999 13.0935 88.6445 10.7828 86.9111 9.05949C85.1633 7.31928 82.8002 6.36133 80.2599 6.36133C75.0237 6.36133 70.9199 10.4025 70.9199 15.5582Z" fill="#0F0F0F"/>
<path d="M5.30566 18.7475C4.59217 17.8762 4.18754 16.7666 4.18754 15.5583C4.18754 14.3356 4.59456 13.2044 5.32481 12.3282C6.26336 11.2018 7.71667 10.4918 9.35194 10.4918C11.9856 10.4918 14.648 12.2344 14.648 15.568C14.648 18.0784 12.8284 20.6225 9.35194 20.6225C7.69991 20.6249 6.24181 19.8908 5.30566 18.7475ZM14.5858 0V8.28943L14.4852 8.21482C12.8595 6.98488 11.0375 6.36149 9.06702 6.36149C6.61292 6.36149 4.32402 7.31944 2.6217 9.05724C0.931363 10.7854 0 13.0936 0 15.5583C0 18.023 0.931363 20.3313 2.6217 22.0594C4.32402 23.7972 6.61292 24.7552 9.06702 24.7552C10.9896 24.7552 12.8643 24.1197 14.4852 22.9211L14.5858 22.8465L14.6887 24.3965H18.7996V0H14.5858Z" fill="#0F0F0F"/>
<path d="M56.0767 18.7473C55.3632 17.876 54.9586 16.7664 54.9586 15.5582C54.9586 14.3355 55.3656 13.2042 56.0959 12.3281C57.0344 11.2016 58.4877 10.4916 60.123 10.4916C62.7543 10.4916 65.4191 12.2342 65.4191 15.5678C65.4191 18.0782 63.5994 20.6223 60.123 20.6223C58.4733 20.6247 57.0152 19.8906 56.0767 18.7473ZM53.3951 9.05708C51.7048 10.7852 50.7734 13.0935 50.7734 15.5582C50.7734 18.0229 51.7048 20.3311 53.3951 22.0593C55.0975 23.7971 57.3864 24.755 59.8405 24.755C61.763 24.755 63.6377 24.1196 65.2586 22.9209L65.3592 22.8463V23.1616C65.3592 23.992 65.2754 24.3771 65.206 24.6082C64.9713 25.3953 64.5236 26.0836 63.8724 26.6228C62.9195 27.4147 61.5931 27.8503 60.135 27.8503C59.8716 27.8503 59.6082 27.8359 59.3496 27.807C57.8173 27.6361 56.297 26.8851 55.0759 25.6961L54.9849 25.5974L54.6641 25.2725L51.8508 28.168L52.2555 28.6205C54.214 30.6736 57.2858 31.9998 60.0775 31.9998C64.2531 31.9998 67.3704 30.1682 68.8548 26.8442C69.1996 26.0716 69.5707 24.755 69.5707 23.3686V6.71755H65.4574L65.3544 8.28927L65.2539 8.21466C63.6282 6.98472 61.8061 6.36133 59.8357 6.36133C57.3864 6.36133 55.0975 7.31928 53.3951 9.05708Z" fill="#0F0F0F"/>
</svg>
